<?xml version="1.0" standalone="no"?>
<!DOCTYPE svg PUBLIC "-//W3C//DTD SVG 20010904//EN"
 "http://www.w3.org/TR/2001/REC-SVG-20010904/DTD/svg10.dtd">
<svg version="1.0" xmlns="http://www.w3.org/2000/svg"
 width="1042.000000pt" height="1042.000000pt" viewBox="0 0 1042.000000 1042.000000"
 preserveAspectRatio="xMidYMid meet">
<metadata>
Created by potrace 1.11, written by Peter Selinger 2001-2013
</metadata>
<g transform="translate(0.000000,1042.000000) scale(0.100000,-0.100000)"
fill="#000000" stroke="none">
<path d="M4938 10415 c-2 -1 -52 -6 -113 -9 -60 -4 -119 -9 -130 -11 -11 -3
-47 -7 -80 -10 -33 -2 -69 -7 -80 -9 -11 -2 -42 -7 -70 -10 -97 -13 -122 -18
-270 -47 -812 -161 -1581 -518 -2225 -1034 -63 -51 -126 -102 -140 -114 -14
-12 -52 -46 -85 -74 -208 -179 -510 -507 -690 -750 -30 -39 -58 -76 -63 -82
-32 -40 -178 -262 -252 -385 -173 -287 -327 -612 -439 -927 -51 -145 -130
-402 -146 -477 -2 -12 -6 -30 -9 -41 -2 -11 -12 -51 -21 -90 -9 -38 -18 -77
-20 -85 -1 -8 -5 -31 -9 -50 -3 -19 -8 -44 -10 -55 -10 -55 -16 -94 -21 -130
-3 -22 -10 -65 -15 -95 -5 -30 -12 -84 -15 -120 -4 -36 -8 -76 -10 -90 -26
-159 -26 -807 0 -1030 5 -40 14 -116 21 -175 3 -22 9 -65 14 -95 6 -30 12 -72
16 -94 3 -21 8 -48 10 -60 2 -11 7 -34 10 -51 30 -167 102 -442 168 -639 45
-136 150 -414 160 -424 2 -1 36 60 76 135 134 254 270 472 459 737 58 82 104
154 102 160 -16 45 -75 359 -86 461 -3 28 -8 60 -10 73 -2 12 -7 62 -10 110
-4 48 -9 103 -11 122 -6 55 -6 447 1 525 16 202 27 307 40 375 3 14 7 41 9 60
8 69 57 292 91 417 72 268 157 496 280 751 63 130 190 363 217 397 5 6 43 62
85 125 143 217 288 394 483 594 150 154 347 329 471 418 13 9 33 24 44 33 227
180 708 445 995 549 19 7 67 25 105 39 196 73 512 156 710 187 120 19 129 20
155 25 14 2 57 7 95 11 39 4 84 8 100 10 362 36 813 14 1185 -57 641 -123
1214 -374 1749 -766 276 -202 579 -497 819 -799 214 -268 456 -684 586 -1009
78 -193 166 -461 181 -547 3 -17 8 -34 10 -38 2 -3 6 -17 9 -31 3 -13 14 -64
24 -114 11 -49 23 -106 26 -125 3 -19 8 -44 10 -56 2 -12 7 -45 11 -74 4 -29
8 -60 10 -69 1 -9 6 -47 10 -86 4 -38 8 -83 10 -100 21 -179 21 -597 1 -775
-3 -19 -7 -62 -11 -95 -10 -94 -14 -121 -31 -225 -50 -294 -145 -640 -239
-865 -38 -93 -38 -86 -12 -122 77 -108 229 -275 431 -475 l230 -227 40 82
c114 230 223 495 296 722 34 107 119 423 134 500 13 66 55 296 60 325 40 273
50 428 50 765 1 250 -6 424 -19 518 -2 18 -9 75 -15 127 -6 52 -13 106 -15
120 -122 811 -426 1569 -902 2243 -58 82 -113 158 -123 170 -10 12 -61 74
-113 138 -120 148 -169 201 -347 379 -162 161 -179 177 -330 303 -530 447
-1146 781 -1823 992 -64 20 -125 38 -135 40 -9 2 -71 17 -137 34 -165 41 -434
92 -560 107 -33 3 -69 8 -79 10 -10 2 -55 6 -100 9 -45 4 -94 8 -111 11 -33 5
-661 14 -667 9z"/>
<path d="M5906 8288 c-119 -33 -174 -64 -251 -141 -39 -40 -88 -99 -110 -132
-276 -427 -426 -624 -695 -910 -168 -178 -428 -428 -620 -595 -225 -195 -334
-287 -445 -376 -388 -312 -649 -464 -819 -479 -175 -16 -259 110 -301 450 -3
22 -8 168 -11 325 -6 267 -11 310 -35 310 -24 0 -91 -79 -128 -148 -66 -129
-111 -271 -150 -477 -32 -166 -32 -168 -36 -340 -3 -132 -1 -175 16 -248 54
-243 192 -361 410 -350 65 3 214 40 274 68 l30 14 -29 -22 c-16 -12 -83 -62
-150 -112 -66 -49 -123 -92 -126 -95 -3 -3 -52 -43 -110 -89 -58 -47 -107 -88
-110 -91 -3 -3 -45 -42 -95 -85 -146 -127 -402 -381 -530 -525 -32 -36 -74
-83 -95 -105 -111 -121 -386 -483 -491 -645 -20 -30 -56 -86 -81 -125 -81
-125 -204 -346 -287 -517 -44 -91 -81 -169 -81 -172 0 -3 -13 -34 -29 -68 -15
-35 -32 -74 -36 -88 -4 -14 -11 -29 -15 -35 -13 -18 -119 -337 -155 -470 -29
-103 -37 -155 -42 -251 -6 -126 1 -150 33 -123 8 7 120 170 249 363 194 292
360 539 414 615 6 9 41 59 78 111 436 622 779 1070 1160 1510 12 14 30 35 41
48 18 21 143 158 205 226 292 316 679 661 967 859 183 126 489 297 531 297 9
0 53 18 97 40 173 87 230 219 96 220 -40 0 -206 -38 -255 -59 -13 -6 -64 -26
-114 -45 -120 -46 -187 -76 -330 -148 -66 -33 -115 -55 -110 -50 6 5 57 44
115 88 86 64 248 189 320 247 8 7 37 30 65 52 84 68 330 269 335 275 3 3 52
46 110 95 58 49 107 92 110 95 3 3 41 37 85 75 315 276 826 771 1005 973 47
52 92 103 100 112 105 114 233 309 300 455 33 71 32 131 -3 161 -56 48 -167
61 -271 32z"/>
<path d="M3897 7967 c-482 -118 -830 -738 -540 -964 59 -46 121 -63 221 -60
392 13 807 474 737 818 -35 175 -205 259 -418 206z"/>
<path d="M7864 7020 c-134 -31 -240 -218 -248 -434 -14 -401 252 -803 526
-792 77 3 125 25 183 83 142 145 171 441 70 720 -68 189 -182 330 -321 398
-74 36 -135 44 -210 25z"/>
<path d="M6658 6380 c-20 -11 -46 -33 -57 -49 -50 -70 -10 -118 127 -150 104
-24 173 -51 257 -100 250 -146 485 -438 705 -880 117 -233 112 -219 86 -282
-60 -144 -419 -998 -431 -1024 -7 -16 -60 -140 -118 -275 -172 -404 -284 -654
-387 -865 -80 -165 -109 -215 -167 -284 -125 -149 -169 -280 -129 -383 73
-191 372 -228 563 -72 143 118 313 517 518 1219 64 219 196 738 241 945 24
111 44 171 44 130 0 -29 270 -686 385 -935 77 -167 90 -195 180 -375 131 -263
328 -599 387 -661 7 -8 25 -30 39 -49 113 -151 234 -218 403 -226 63 -3 86 1
117 16 72 37 92 103 59 197 -26 75 -69 132 -177 236 -321 310 -424 417 -540
562 -35 44 -70 87 -77 96 -7 9 -33 45 -57 80 -24 35 -47 66 -50 69 -14 13
-125 200 -145 247 l-24 53 29 42 c25 38 68 138 76 178 2 8 8 33 13 55 16 57
21 90 28 171 l6 72 -92 238 c-112 291 -223 570 -245 621 -10 21 -21 47 -25 58
-31 79 -134 309 -178 399 -326 668 -670 934 -1222 944 -88 2 -111 -1 -142 -18z"/>
<path d="M6753 5357 c-39 -27 -252 -242 -350 -352 -98 -111 -307 -360 -388
-460 -22 -27 -48 -59 -57 -70 -51 -61 -330 -415 -438 -555 -69 -89 -130 -168
-135 -174 -16 -17 -599 -794 -704 -938 -51 -71 -95 -128 -97 -128 -2 0 -2 15
2 33 7 42 7 350 0 407 -4 25 -9 65 -12 90 -38 298 -179 654 -357 898 -220 302
-530 526 -722 523 -139 -2 -273 -69 -244 -122 15 -30 49 -47 123 -64 170 -39
452 -210 611 -370 176 -176 269 -350 322 -599 18 -87 25 -360 11 -468 -26
-204 -116 -515 -204 -706 -13 -29 -24 -55 -24 -58 0 -8 -137 -285 -178 -359
-102 -185 -158 -275 -342 -551 -145 -217 -175 -270 -193 -351 -34 -148 17
-246 122 -236 96 9 183 77 316 248 38 50 73 92 77 93 4 2 8 8 8 13 0 6 9 20
21 32 38 40 226 330 297 457 100 180 172 339 238 528 20 56 29 63 39 33 9 -29
70 -79 110 -90 62 -17 129 6 189 66 52 52 80 95 166 253 549 1012 1124 1939
1485 2390 33 41 114 130 181 197 104 105 127 134 164 208 34 69 43 98 44 143
1 54 0 57 -24 59 -14 1 -39 -8 -57 -20z"/>
<path d="M5328 4949 c-182 -19 -353 -112 -506 -274 -141 -150 -214 -308 -215
-466 -1 -74 3 -93 26 -142 34 -69 78 -108 154 -137 77 -29 204 -24 312 13 248
86 486 330 557 572 26 88 23 206 -6 273 -51 117 -170 176 -322 161z"/>
<path d="M1820 2383 c-128 -183 -189 -271 -328 -476 l-134 -198 23 -27 c53
-60 289 -292 359 -352 41 -36 79 -70 85 -76 18 -19 218 -179 296 -236 179
-133 459 -309 652 -411 65 -35 76 -35 58 1 -83 160 -92 394 -22 575 24 62 78
167 135 261 57 95 59 100 40 113 -10 8 -77 53 -149 100 -71 47 -157 106 -190
131 -217 164 -500 428 -650 606 -44 52 -84 95 -90 95 -5 0 -44 -47 -85 -106z"/>
<path d="M8165 2122 c-148 -144 -335 -298 -494 -407 -40 -27 -114 -84 -165
-126 -124 -103 -165 -130 -306 -199 -8 -4 -49 -17 -90 -29 -90 -27 -119 -37
-185 -67 -162 -72 -472 -181 -600 -210 -5 -1 -47 -12 -93 -23 -153 -40 -373
-79 -532 -96 -14 -2 -50 -6 -80 -9 -208 -22 -631 -23 -803 -1 -15 2 -60 6
-100 10 -40 4 -79 9 -89 10 -9 2 -36 7 -61 10 l-44 7 -31 -49 c-77 -123 -200
-288 -336 -451 -72 -87 -210 -194 -319 -247 -42 -21 -76 -39 -75 -40 4 -4 366
-93 403 -100 167 -30 327 -56 405 -65 52 -6 111 -13 130 -15 206 -27 775 -26
1025 0 74 8 269 33 301 39 10 2 53 9 94 16 154 25 474 103 620 150 36 12 72
23 80 25 31 7 280 99 395 147 377 156 824 414 1135 654 77 60 244 195 280 227
112 100 280 261 280 268 0 4 -21 15 -47 25 -76 29 -215 128 -305 217 -95 93
-147 159 -242 305 -36 56 -67 102 -69 102 -1 0 -38 -35 -82 -78z"/>
</g>
</svg>
